<svg width="20" height="19" viewBox="0 0 20 19" fill="none" xmlns="http://www.w3.org/2000/svg">
<path d="M11.5513 12.0579C10.2103 12.0579 8.86922 12.0579 7.52804 12.0579C6.19354 12.0579 5.26065 11.3145 4.99406 10.006C4.46966 7.43726 3.96281 4.86225 3.44373 2.291C3.36385 1.89535 3.44843 1.95831 3.03054 1.95581C2.29688 1.95111 1.56322 1.96333 0.829562 1.9508C0.243449 1.94108 -0.12714 1.43611 0.0404551 0.902621C0.0897686 0.738291 0.191316 0.59452 0.329702 0.493105C0.468089 0.391689 0.635768 0.338158 0.80732 0.340629C1.88776 0.331857 2.96883 0.329978 4.04927 0.340629C4.49316 0.345641 4.7751 0.610347 4.86375 1.05518C5.37123 3.62121 5.87861 6.18693 6.38589 8.75234C6.44697 9.06153 6.51119 9.37009 6.57103 9.67928C6.67221 10.1974 6.95759 10.4402 7.49108 10.4414C8.76887 10.4446 10.047 10.4414 11.3248 10.4414C12.7209 10.4414 14.1171 10.4414 15.5134 10.4414C16.1239 10.4414 16.3846 10.2222 16.5121 9.62697C16.9262 7.686 17.3418 5.74523 17.7589 3.80468C17.8842 3.22076 17.544 2.78345 16.9506 2.76684C16.6982 2.75964 16.4454 2.77123 16.1932 2.76308C15.6976 2.74742 15.3524 2.41223 15.3527 1.95549C15.353 1.49876 15.6973 1.15135 16.1929 1.14916C16.6333 1.14728 17.085 1.12378 17.5123 1.20805C18.8593 1.47401 19.6757 2.75619 19.3863 4.10886C18.9577 6.11248 18.5214 8.11339 18.0774 10.1116C17.8171 11.2882 16.8748 12.0482 15.6688 12.0557C14.2964 12.0638 12.924 12.0576 11.5513 12.0579Z" fill="white"/>
<path d="M12.1137 4.38433C12.682 4.38433 13.2167 4.37556 13.7508 4.38684C14.2561 4.39749 14.5929 4.80661 14.5293 5.3072C14.4785 5.70567 14.1424 5.99011 13.6992 5.99637C13.2656 6.00264 12.8317 5.99794 12.3982 5.99794H12.1162C12.1162 6.50762 12.1162 6.99412 12.1147 7.48061C12.1147 7.59777 12.1147 7.71994 12.0833 7.83146C12.0323 8.01561 11.9171 8.17546 11.7585 8.28217C11.6 8.38889 11.4086 8.43547 11.2187 8.4135C11.0249 8.39036 10.8459 8.29795 10.7148 8.15329C10.5836 8.00864 10.5092 7.82148 10.5051 7.62628C10.4951 7.16891 10.5023 6.71155 10.502 6.25419V5.99763C9.96225 5.99763 9.44412 6.00233 8.92629 5.99763C8.47708 5.9923 8.13123 5.69408 8.08738 5.28778C8.03475 4.80285 8.37621 4.40031 8.86834 4.38778C9.31756 4.37618 9.76709 4.38433 10.2154 4.3837H10.5007C10.5007 3.86839 10.4979 3.37469 10.5029 2.88005C10.5012 2.75466 10.5174 2.62967 10.5509 2.50883C10.6646 2.13824 11.0283 1.91739 11.4161 1.96783C11.8039 2.01826 12.1021 2.32369 12.1106 2.7137C12.1225 3.25596 12.1137 3.79978 12.1137 4.38433Z" fill="white"/>
<path d="M15.3405 18.1161C14.0186 18.1161 12.9181 17.0065 12.9243 15.6795C12.9306 14.3525 14.0311 13.2577 15.3603 13.2639C16.6816 13.2699 17.7743 14.3604 17.7768 15.6761C17.7769 16.3226 17.5204 16.9427 17.0636 17.4003C16.6068 17.8578 15.9871 18.1152 15.3405 18.1161ZM15.3521 14.5339C14.7018 14.5364 14.1793 15.0639 14.1931 15.7055C14.1992 16.0096 14.3238 16.2992 14.5403 16.5129C14.7567 16.7265 15.048 16.8473 15.3521 16.8495C15.9921 16.8514 16.5168 16.317 16.5112 15.6723C16.5075 15.3679 16.3835 15.0774 16.1664 14.8641C15.9492 14.6509 15.6565 14.5321 15.3521 14.5339Z" fill="white"/>
<path d="M5.66163 15.6905C5.66105 15.3724 5.72313 15.0573 5.84432 14.7632C5.96551 14.4691 6.14344 14.2018 6.36795 13.9765C6.59246 13.7511 6.85915 13.5722 7.1528 13.45C7.44645 13.3277 7.7613 13.2645 8.07938 13.2639C9.39696 13.258 10.4978 14.3494 10.5012 15.6651C10.504 15.9852 10.4435 16.3027 10.3233 16.5993C10.203 16.896 10.0253 17.1659 9.80035 17.3937C9.57542 17.6214 9.3077 17.8025 9.01257 17.9265C8.71745 18.0504 8.40074 18.1149 8.08063 18.1161C6.75272 18.1233 5.66319 17.0312 5.66163 15.6905ZM8.09191 14.5339C7.43751 14.5301 6.92501 15.0351 6.92407 15.6851C6.92324 15.8379 6.95261 15.9893 7.01049 16.1306C7.06837 16.272 7.15362 16.4005 7.26133 16.5088C7.36904 16.6171 7.4971 16.703 7.63813 16.7617C7.77916 16.8203 7.9304 16.8505 8.08314 16.8505C8.71906 16.8486 9.24565 16.3135 9.24033 15.6748C9.23664 15.3721 9.11422 15.0829 8.89944 14.8695C8.68465 14.6561 8.39467 14.5356 8.09191 14.5339Z" fill="white"/>
</svg>
