<svg width="20" height="22" viewBox="0 0 20 22" fill="none" xmlns="http://www.w3.org/2000/svg">
<path d="M6.16633 3.07691C6.16633 2.63481 6.12752 2.22166 6.1739 1.82036C6.29429 0.773668 7.13901 0.0253284 8.20543 0.011184C9.39883 -0.00372799 10.5923 -0.00372799 11.786 0.011184C12.9675 0.0253284 13.8359 0.917744 13.8458 2.09864C13.8487 2.41673 13.8458 2.73514 13.8458 3.07625H14.1274C15.7773 3.0791 17.4274 3.08283 19.0776 3.08744C19.2213 3.08413 19.3647 3.10322 19.5026 3.14401C19.8315 3.25388 20.0427 3.62164 19.9927 3.96472C19.9417 4.31636 19.6503 4.60221 19.296 4.61635C18.9039 4.63181 18.5111 4.62819 18.1187 4.62129C17.9631 4.61833 17.8944 4.65418 17.8839 4.82885C17.7257 7.46695 17.5632 10.1051 17.3964 12.7432C17.2852 14.5257 17.1776 16.3089 17.0585 18.0907C16.9477 19.7522 15.6329 21.0249 13.9619 21.0384C11.3348 21.0603 8.7074 21.0603 6.07982 21.0384C4.37624 21.0275 3.07199 19.7032 2.97495 17.995C2.8562 15.9161 2.70259 13.8392 2.56575 11.7613C2.44645 9.94727 2.32825 8.13306 2.21115 6.31862C2.17826 5.81501 2.14043 5.31173 2.11674 4.8078C2.10951 4.65813 2.0526 4.618 1.91247 4.62096C1.56018 4.62819 1.20755 4.62523 0.855257 4.62293C0.344741 4.61931 -0.00229119 4.30419 1.13895e-05 3.85124C0.00231397 3.39828 0.349676 3.08678 0.864796 3.08546C2.52288 3.08064 4.18096 3.07735 5.83904 3.07559L6.16633 3.07691ZM16.3572 4.66964H3.70092C3.70092 4.75418 3.69697 4.83411 3.70092 4.91108C3.78557 6.38276 3.87066 7.85433 3.95618 9.32579C4.1246 12.1648 4.29378 15.0036 4.46374 17.8424C4.52525 18.893 5.15648 19.5052 6.20712 19.5068C7.24021 19.5082 8.27363 19.5082 9.30738 19.5068C10.8205 19.5068 12.3359 19.5101 13.8501 19.5052C14.7609 19.5026 15.4665 18.8963 15.5234 18.0467C15.6619 15.9763 15.7846 13.9053 15.9142 11.8343C16.0201 10.1394 16.1262 8.44434 16.2326 6.7492C16.2743 6.07093 16.3138 5.39199 16.3572 4.66964ZM12.2784 3.07C12.289 3.04972 12.2971 3.02817 12.3024 3.00586C12.3047 2.7335 12.307 2.46113 12.3063 2.18877C12.3063 1.76575 12.1478 1.6026 11.7294 1.6003C11.2008 1.59701 10.6718 1.6003 10.1432 1.6003C9.51034 1.6003 8.87746 1.59832 8.24458 1.6003C7.95018 1.6003 7.7334 1.72168 7.71498 1.94996C7.68505 2.31969 7.70676 2.69369 7.70676 3.06836L12.2784 3.07Z" fill="white"/>
<path d="M7.69261 12.0412C7.69261 13.4033 7.69458 14.7658 7.69261 16.1282C7.69261 16.5434 7.4107 16.8756 7.03473 16.9243C6.84665 16.9514 6.6552 16.9077 6.49753 16.8016C6.33986 16.6956 6.22722 16.5347 6.18145 16.3503C6.16108 16.2566 6.15235 16.1609 6.15547 16.0651C6.15415 13.3965 6.15415 10.7278 6.15547 8.059C6.15547 7.5419 6.46007 7.20375 6.91992 7.20046C7.37978 7.19717 7.69261 7.54157 7.69294 8.05209C7.69381 9.38145 7.6937 10.7111 7.69261 12.0412Z" fill="white"/>
<path d="M9.23139 12.066C9.23139 10.7035 9.22876 9.34137 9.23139 7.9789C9.23139 7.56443 9.52251 7.24108 9.90572 7.20391C10.3093 7.16444 10.6593 7.40588 10.7468 7.79601C10.7658 7.90644 10.7728 8.01861 10.7675 8.13054C10.7675 10.7513 10.7675 13.3719 10.7675 15.9922C10.7675 16.0485 10.7675 16.1044 10.7675 16.1606C10.7518 16.6057 10.4126 16.9396 9.98335 16.9327C9.78076 16.928 9.58823 16.8434 9.44774 16.6974C9.30725 16.5514 9.23019 16.3557 9.23337 16.1531C9.22843 14.7909 9.23139 13.4285 9.23139 12.066Z" fill="white"/>
<path d="M12.3083 12.0412C12.3083 10.6867 12.3057 9.33242 12.3083 7.97817C12.3083 7.5637 12.5994 7.24036 12.9826 7.20319C13.3866 7.16371 13.7362 7.40483 13.8234 7.79528C13.8425 7.9057 13.8495 8.01787 13.8444 8.12981C13.8444 10.7506 13.8444 13.3712 13.8444 15.9915C13.8444 16.0477 13.8444 16.1037 13.8444 16.1599C13.829 16.6053 13.4895 16.9388 13.0602 16.9319C12.6458 16.9254 12.3103 16.5882 12.3086 16.153C12.3037 14.7826 12.3083 13.4123 12.3083 12.0412Z" fill="white"/>
</svg>
