<svg width="24" height="27" viewBox="0 0 24 27" fill="none" xmlns="http://www.w3.org/2000/svg">
<path d="M11.4686 27C11.042 26.8715 10.5913 26.7933 10.1933 26.6052C9.10231 26.0885 8.392 25.2273 8.06584 24.0609C8.0472 23.9944 8.02752 23.9279 8.00095 23.8359H7.69032C5.41903 23.8359 3.14763 23.8359 0.876115 23.8359C0.505084 23.8359 0.220339 23.6947 0.0708907 23.3536C-0.0764863 23.0188 0.015322 22.7187 0.25934 22.458C0.27142 22.4449 0.283155 22.4318 0.293854 22.419C1.92674 20.6773 3.00808 18.6435 3.44745 16.2979C3.60518 15.457 3.65453 14.5913 3.6925 13.7339C3.74186 12.666 3.65453 11.5839 3.76153 10.5219C4.03765 7.77668 5.42582 5.69909 7.7842 4.28085C8.26153 3.99355 8.79961 3.80442 9.31699 3.58705C9.45746 3.5278 9.51752 3.47131 9.51786 3.31146C9.51786 2.85571 9.49612 2.39272 9.56653 1.94558C9.75429 0.753316 10.8615 -0.0824052 12.075 0.00647201C13.2654 0.0939713 14.2256 1.08919 14.2643 2.28249C14.275 2.61595 14.2805 2.95113 14.2643 3.28391C14.2546 3.46924 14.3257 3.53193 14.4914 3.59222C17.2743 4.59846 19.077 6.52345 19.8284 9.38267C20.001 10.0372 20.0427 10.7341 20.07 11.4151C20.119 12.5554 20.0627 13.7011 20.1342 14.8393C20.2805 17.1753 21.0854 19.2884 22.4625 21.1779C22.7773 21.6098 23.1356 22.0119 23.4893 22.4139C23.7365 22.6943 23.869 22.9929 23.7102 23.3516C23.5497 23.7188 23.2408 23.838 22.8526 23.8373C20.5988 23.8318 18.3448 23.8308 16.0908 23.8345H15.7971C15.7053 24.0981 15.6373 24.3616 15.5251 24.6044C14.918 25.9207 13.9029 26.7134 12.4623 26.9521C12.4119 26.964 12.3624 26.9795 12.3142 26.9986L11.4686 27ZM21.2228 22.2402C21.2228 22.2106 21.2266 22.1906 21.219 22.1789C21.1603 22.0914 21.0992 22.0067 21.0388 21.9192C19.5657 19.8016 18.7049 17.4615 18.5476 14.8858C18.4803 13.7835 18.5186 12.6729 18.492 11.5664C18.4809 11.1023 18.4575 10.6363 18.3857 10.1771C17.8386 6.7322 14.3623 4.2433 10.9112 4.81652C7.58643 5.3677 5.29052 8.07535 5.28707 11.4475C5.28707 12.3263 5.29915 13.2044 5.28189 14.0835C5.22529 16.9823 4.36139 19.6192 2.6902 21.9943C2.63774 22.0687 2.58665 22.1445 2.52246 22.2402H21.2228ZM14.099 23.8511H9.68388C9.9203 24.7285 10.8871 25.4133 11.8783 25.4174C12.8851 25.4219 13.8546 24.7436 14.099 23.8511ZM12.6794 3.17987C12.6794 2.87948 12.697 2.58219 12.6749 2.288C12.6473 1.91733 12.3353 1.62383 11.9687 1.58525C11.6022 1.54667 11.2243 1.77024 11.1514 2.14021C11.0824 2.4816 11.1045 2.84021 11.0865 3.17987H12.6794Z" fill="black"/>
</svg>
