<svg width="20" height="20" viewBox="0 0 20 20" fill="none" xmlns="http://www.w3.org/2000/svg">
<path d="M0 5.06833C0.10336 4.79104 0.168624 4.49157 0.317262 4.24114C0.71384 3.57226 1.32588 3.20629 2.10436 3.20285C4.97502 3.19005 7.84537 3.19661 10.716 3.19786C11.0664 3.19786 11.3234 3.44611 11.3274 3.77367C11.3321 4.11498 11.0683 4.36698 10.692 4.36698C7.89325 4.36823 5.09441 4.36823 2.29547 4.36698C1.54728 4.36698 1.17256 4.74315 1.17131 5.49551C1.17131 9.55496 1.17131 13.6151 1.17131 17.6761C1.17131 18.4105 1.55321 18.7918 2.28891 18.7918H14.5135C15.2373 18.7918 15.6252 18.4074 15.6252 17.6898C15.6252 14.9223 15.6252 12.1548 15.6252 9.38728C15.6208 9.30303 15.6244 9.21856 15.6358 9.13496C15.6615 8.9922 15.7395 8.86412 15.8545 8.77565C15.9694 8.68718 16.1132 8.64465 16.2578 8.65634C16.4024 8.66803 16.5375 8.73309 16.6368 8.83888C16.736 8.94466 16.7924 9.08359 16.7949 9.22864C16.8018 9.42319 16.7968 9.61835 16.7968 9.81321C16.7968 12.4637 16.7968 15.1142 16.7968 17.7647C16.7968 18.8158 16.1454 19.658 15.1436 19.8985C14.9471 19.9424 14.7461 19.9633 14.5447 19.9609C10.4506 19.9643 6.35617 19.954 2.26205 19.969C1.00924 19.9734 0.143954 19.075 0.0281037 18.1416C0.0259179 18.1242 0.00999216 18.1085 0.000624189 18.092L0 5.06833Z" fill="black"/>
<path d="M20 2.69017C19.9001 3.11298 19.6231 3.41338 19.3246 3.71065C16.5129 6.50918 13.705 9.31125 10.9009 12.1169C10.7353 12.2919 10.5181 12.4097 10.281 12.4528C9.43136 12.6115 8.58543 12.7888 7.73669 12.9525C7.26611 13.044 6.9273 12.7042 7.01848 12.2371C7.1921 11.3521 7.36353 10.4665 7.55089 9.58438C7.58499 9.43351 7.65971 9.29485 7.76698 9.18343C10.686 6.26207 13.6077 3.34343 16.532 0.427492C16.7506 0.208906 17.0188 0.0911816 17.3048 0H17.7345C18.1458 0.088059 18.4558 0.331002 18.7338 0.632338C18.9313 0.846553 19.1377 1.05254 19.353 1.25031C19.659 1.53135 19.9101 1.84362 20 2.26143V2.69017ZM15.8263 2.74263C15.7871 2.80341 15.7433 2.86114 15.6954 2.91531C13.5389 5.06995 11.3893 7.23145 9.21558 9.36891C8.8265 9.75206 8.55483 10.1496 8.51767 10.6951C8.50955 10.8169 8.46989 10.9365 8.44741 11.0573C8.41212 11.2447 8.37933 11.4321 8.3403 11.6453C8.92236 11.5282 9.46446 11.4227 10.0031 11.3062C10.0709 11.2915 10.133 11.226 10.1864 11.1726C12.4926 8.87345 14.7977 6.57309 17.1019 4.27148C17.1503 4.22308 17.1955 4.17187 17.2268 4.14002L15.8263 2.74263ZM18.1058 3.27942C18.3208 3.06145 18.5353 2.84401 18.7491 2.62709C18.8465 2.52779 18.8605 2.42193 18.7587 2.31951C18.3968 1.95572 18.0371 1.58943 17.6639 1.23751C17.6149 1.19098 17.4566 1.1813 17.4104 1.22283C17.1668 1.44142 16.942 1.68311 16.7234 1.90451L18.1058 3.27942Z" fill="black"/>
</svg>
