<svg id="Layer_1" data-name="Layer 1" xmlns="http://www.w3.org/2000/svg" viewBox="0 0 1200 1200" fill="white"><path d="M1106.69,865.1c-1,2.7-2.15,5.37-3,8.12-9,28.67-33.89,47.8-63.93,49.07-3,.12-5.93.11-8.9.11q-430.81,0-861.63.1c-24.17,0-45-6.87-60.18-26.18-17.14-21.83-20.47-46.28-9-71.57s32.2-38.48,59.81-40.49c8.17-.59,16.43-.09,25.69-.09,1.93-109.59,38.91-204.94,114-284.21,74.86-79.09,167.83-121,276.79-129.23V323.47c-14.36,0-28.13.09-41.9,0-16.17-.13-26.36-9.22-26.18-23.11.18-13.43,10.39-22.7,25.78-22.74q66.29-.19,132.56,0c15.33,0,25.5,9.48,25.53,23s-9.94,22.71-25.38,22.87c-14.09.16-28.18,0-42.8,0v47.18C732.77,378.74,826,420.77,901,500.13c74.75,79.09,111.75,174.11,113.71,283.92,7.13,0,13.61,0,20.1,0,35.49.32,60.52,19.62,70.09,54a17.17,17.17,0,0,0,1.78,3.35Zm-874-81.73H967.73C970.81,596,815.66,415.43,599.17,416.07,383.11,416.71,229.26,597.43,232.66,783.37Zm367.05,93.1H1026c3.3,0,6.6.12,9.89-.07,14.77-.84,24.64-10,24.79-23s-9.73-22.4-24.37-23.38c-2-.13-4-.07-5.93-.07q-430.2,0-860.41,0a57.14,57.14,0,0,0-12.74,1.18,22.57,22.57,0,0,0-.4,43.88,70.81,70.81,0,0,0,15.68,1.33Q386.1,876.53,599.71,876.47Z"/><path d="M369.91,621.78a87.81,87.81,0,0,1,2.94-10.12,165.78,165.78,0,0,1,154.28-103.8c16.16.09,26.69,8.88,27,22.57.32,13.52-10,22.86-26,23.76-42.27,2.36-78.29,17-102.43,53.67-5,7.59-7.92,16.54-11.82,24.86-4.89,10.4-15,15.5-26,13.17C377.36,643.66,370.14,634.86,369.91,621.78Z"/></svg>