<svg id="Layer_1" data-name="Layer 1" xmlns="http://www.w3.org/2000/svg" viewBox="0 0 1200 1200"><defs><style>.cls-1{fill:#eb7021;}.cls-2{fill:none;stroke:#eb7021;stroke-miterlimit:10;stroke-width:35px;}</style></defs><g id="CUSTOM-Group"><path class="cls-1" d="M744.62,409.65c-27.56-37.45-80.3-45.6-117.57-18.18s-45.17,80.21-17.61,117.66,80.3,45.61,117.57,18.18S772.18,447.1,744.62,409.65ZM645,483c-13.13-17.85-9.45-43,8.22-56s42.72-9,55.86,8.79,9.44,42.95-8.22,55.95S658.13,500.81,645,483Z"/><path class="cls-1" d="M342,323.67a72.83,72.83,0,0,0-11.32,58.1c23.82,103.22,74,208.87,145.13,305.52s157.07,176,248.55,229.43a72.79,72.79,0,0,0,103.07-33.05l261.67-581.82a61,61,0,0,0-62.9-85.48L392.87,293.18A73,73,0,0,0,342,323.67ZM870.35,660.46c-23.39,17.21-56.55,12-73.92-11.6S784,592,807.34,574.83s56.54-12,73.92,11.6,12.48,56.82-10.91,74ZM910.63,308.6c17.37,23.61,12.48,56.81-10.91,74s-56.55,12-73.92-11.6-12.48-56.81,10.9-74S893.25,285,910.63,308.6Zm-126-18.47a97.45,97.45,0,0,0,5.6,107.06c31.8,43.21,92.64,52.62,135.63,21s52.1-92.53,20.3-135.75A99,99,0,0,0,937,271.66l94.53-11.47a16.85,16.85,0,0,1,17.33,23.55L921.38,567.11c-1.42-2.32-2.93-4.61-4.57-6.84-31.8-43.21-92.65-52.62-135.64-21S729.08,631.81,760.88,675a97.41,97.41,0,0,0,94.73,38.33l-28.42,63.19c-79.38-40-155.5-106.28-216.19-188.75S509.62,412.92,495.08,325.25ZM398.18,337l53.06-6.44c15.43,95.05,59,194.83,124.21,283.39S722.92,773.82,809.08,816.81l-21.92,48.75a28.64,28.64,0,0,1-40.56,13C660.28,828.17,578.93,753,511.34,661.13S396.15,469.25,373.67,371.84A28.64,28.64,0,0,1,398.18,337Z"/></g><path class="cls-2" d="M379,673.46c-39.38-16.81-85.12-12.05-119.68,12-29.15,15.57-56.53,34-83.79,52.6-14.09,9.64-28,19.6-41.92,29.45a17.7,17.7,0,0,0-7.48,17.32c1,5.64,4.61,8.51,12.75,11.19,10.62,3.49,21.21,7.1,31.81,10.64-9.57,16.81-18.84,33.82-28,50.86-11.66,21.58-22.82,43.43-34.16,65.18a25.27,25.27,0,0,0,1.6,26.44c5,6.91,11.51,8.27,23.9,6.3,39.53-6.3,79.31-11.51,118.39-19.92l9-2c-.35,10.94-.62,21.88-.94,32.82a17.7,17.7,0,0,0,9.36,16.38c5.1,2.6,9.57,1.42,16.6-3.48,22.9-16,46.29-31.35,68.26-48.52,17.61-13.75,35-28,51.56-43,26.24-18.46,41.52-46.78,47-81.49C462.08,749.93,431,695.65,379,673.46Z"/></svg>