<svg fill="#ffffff" id="Layer_1" data-name="Layer 1" xmlns="http://www.w3.org/2000/svg" viewBox="0 0 1200 441.89"><defs></defs><g id="CUSTOM-Group"><path class="cls-1" d="M292.55,165.09a23.54,23.54,0,1,0-4.93,33A23.62,23.62,0,0,0,292.55,165.09Zm-27.94,20.57a11.16,11.16,0,1,1,15.67,2.47A11.22,11.22,0,0,1,264.61,185.66Z"/><path class="cls-1" d="M179.61,141a20.44,20.44,0,0,0-3.18,16.29c6.69,29,20.76,58.59,40.72,85.71s44.06,49.36,69.72,64.35a20.4,20.4,0,0,0,28.91-9.27l73.4-163.21a17.11,17.11,0,0,0-17.65-24L193.88,132.42A20.48,20.48,0,0,0,179.61,141Zm148.21,94.47a14.91,14.91,0,1,1,3.06-20.77,14.85,14.85,0,0,1-3.06,20.77Zm11.3-98.7a14.77,14.77,0,1,1-20.73-3.26A14.86,14.86,0,0,1,339.12,136.75Zm-35.34-5.18a27.26,27.26,0,1,0,45.31-2.16,27,27,0,0,0-2.58-3L373,123.17a4.73,4.73,0,0,1,4.86,6.61l-35.75,79.48c-.4-.65-.82-1.29-1.28-1.91a27.15,27.15,0,1,0-17.17,42.94l-8,17.72c-22.27-11.21-43.62-29.81-60.65-52.95S226.64,166,222.56,141.42ZM195.37,144.72l14.89-1.81c4.33,26.66,16.56,54.65,34.84,79.49s41.37,44.85,65.54,56.91L304.49,293a8,8,0,0,1-11.38,3.66c-24.21-14.15-47-35.24-66-61s-32.32-53.83-38.62-81.15a8,8,0,0,1,6.87-9.77Z"/></g><path class="cls-1" d="M160.8,331.14a7.93,7.93,0,0,1-3.68-.92,9.88,9.88,0,0,1-5.3-9.11c0-1,.06-2,.08-3-7.15,1.42-14.38,2.52-21.41,3.59-2.78.42-5.65.86-8.46,1.31-2.35.37-7.85,1.25-11.46-3.74a12.08,12.08,0,0,1-.82-12.56c.86-1.64,1.71-3.29,2.56-4.93,2.29-4.41,4.65-9,7.06-13.42,1.59-2.95,3.27-6,5-9.17l-3.27-1.09c-1.64-.54-6-2-6.88-7a9.91,9.91,0,0,1,4.1-9.71l3.14-2.22c2.83-2,5.76-4.08,8.68-6.08a260.53,260.53,0,0,1,23.72-14.9,40.08,40.08,0,0,1,38.06-3.68,39.59,39.59,0,0,1,23.73,42.54c-1.77,11.22-6.94,20.18-15,25.93-4.18,3.77-8.93,7.73-14.51,12.08-4.71,3.69-9.67,7.09-14.46,10.38l-4.9,3.39A10.59,10.59,0,0,1,160.8,331.14Zm1.3-25.24-.2,6.31c-.06,1.81-.11,3.63-.16,5.45,0,1-.06,1.91-.08,2.87,1.5-1,3-2.09,4.5-3.11,4.67-3.21,9.5-6.53,14-10,5.49-4.29,10.13-8.16,14.2-11.83l.22-.2.24-.17c6-4.23,9.78-10.83,11.16-19.61a29.77,29.77,0,0,0-17.89-32h0a30.14,30.14,0,0,0-28.84,2.88l-.24.16-.25.14a251.32,251.32,0,0,0-23,14.47c-2.85,2-5.74,4-8.54,6L124.7,269c1.76.58,3.53,1.18,5.25,1.76l3.16,1.06,5.67,1.89-3,5.19c-2.73,4.8-5.37,9.65-7.81,14.17s-4.72,8.91-7,13.28l-2.57,4.95a2.2,2.2,0,0,0,0,2.22,9.21,9.21,0,0,0,2-.16L129,312c8.06-1.22,16.4-2.49,24.42-4.22l2.5-.54Z"/><path class="cls-1" d="M501.83,259.91H482.26v-9.08H482a23.6,23.6,0,0,1-3.33,3.76,25.11,25.11,0,0,1-4.82,3.47,29.63,29.63,0,0,1-6.1,2.56,24,24,0,0,1-6.88,1A35.68,35.68,0,0,1,447,259a30.87,30.87,0,0,1-10.7-7.38,32.75,32.75,0,0,1-6.88-11.27A41,41,0,0,1,427,226a43.52,43.52,0,0,1,2.19-13.82,38.16,38.16,0,0,1,6.24-11.7,30.54,30.54,0,0,1,9.86-8.16,28,28,0,0,1,13.19-3.05,36.6,36.6,0,0,1,12.41,2.06,19.85,19.85,0,0,1,9.43,7h.28V152.7h21.27Zm-19.57-34.46q0-7.8-4.46-12.62T465.25,208q-8.08,0-12.55,4.83t-4.47,12.62q0,7.8,4.47,12.62t12.55,4.82q8.08,0,12.55-4.82T482.26,225.45Z"/><path class="cls-1" d="M584.08,248a33.93,33.93,0,0,1-12.9,10.06A38.57,38.57,0,0,1,555,261.61a43.49,43.49,0,0,1-15-2.55,36.08,36.08,0,0,1-12.19-7.31,34.17,34.17,0,0,1-8.16-11.41,38.69,38.69,0,0,1,0-29.78,34.21,34.21,0,0,1,8.16-11.42,35.89,35.89,0,0,1,12.19-7.3,43.5,43.5,0,0,1,15-2.56,34.05,34.05,0,0,1,13.4,2.56,27.75,27.75,0,0,1,10.21,7.3,33.36,33.36,0,0,1,6.46,11.42,46,46,0,0,1,2.27,14.89v6.66H538a16.81,16.81,0,0,0,5.53,9.72A15.62,15.62,0,0,0,554,245.44a16,16,0,0,0,8.86-2.34,23.85,23.85,0,0,0,6.31-6Zm-18-30.35a12.27,12.27,0,0,0-3.54-9.22,12.63,12.63,0,0,0-9.5-3.83,16,16,0,0,0-6.24,1.13,15.76,15.76,0,0,0-4.61,2.91,12.68,12.68,0,0,0-3,4.11,13.42,13.42,0,0,0-1.2,4.9Z"/><path class="cls-1" d="M600.53,152.7h21.28V259.91H600.53Z"/><path class="cls-1" d="M635.7,169.29a12.36,12.36,0,1,1,3.62,8.72A11.89,11.89,0,0,1,635.7,169.29Zm1.7,21.7h21.28v68.92H637.4Z"/><path class="cls-1" d="M666.76,191h23l17.45,46.79h.28L723.63,191H745l-27.23,68.92H695.26Z"/><path class="cls-1" d="M818.07,248a33.93,33.93,0,0,1-12.9,10.06A38.57,38.57,0,0,1,789,261.61a43.49,43.49,0,0,1-15-2.55,36.08,36.08,0,0,1-12.19-7.31,34.17,34.17,0,0,1-8.16-11.41,38.69,38.69,0,0,1,0-29.78,34.21,34.21,0,0,1,8.16-11.42,35.89,35.89,0,0,1,12.19-7.3,43.5,43.5,0,0,1,15-2.56,34.05,34.05,0,0,1,13.4,2.56,27.75,27.75,0,0,1,10.21,7.3,33.36,33.36,0,0,1,6.46,11.42,46,46,0,0,1,2.27,14.89v6.66H772a16.81,16.81,0,0,0,5.53,9.72A15.62,15.62,0,0,0,788,245.44a16,16,0,0,0,8.86-2.34,23.85,23.85,0,0,0,6.31-6Zm-18-30.35a12.27,12.27,0,0,0-3.54-9.22,12.63,12.63,0,0,0-9.5-3.83,16,16,0,0,0-6.24,1.13,15.63,15.63,0,0,0-4.61,2.91,12.68,12.68,0,0,0-3,4.11,13.42,13.42,0,0,0-1.2,4.9Z"/><path class="cls-1" d="M836.93,159.5h37.44a93.89,93.89,0,0,1,13.12.93,35.78,35.78,0,0,1,11.84,3.68,22.68,22.68,0,0,1,8.51,7.73q3.25,5,3.26,13.19,0,8.5-4.75,14.11a26,26,0,0,1-12.55,8v.29a28.66,28.66,0,0,1,9,2.76,24.09,24.09,0,0,1,7,5.25,22.54,22.54,0,0,1,4.46,7.44,26.21,26.21,0,0,1,1.56,9.08c0,5.3-1.13,9.71-3.4,13.26a26.79,26.79,0,0,1-8.79,8.58,38.4,38.4,0,0,1-12.13,4.68,64.6,64.6,0,0,1-13.4,1.42H836.93Zm22.13,40.14h16a22.52,22.52,0,0,0,5-.57,14,14,0,0,0,4.46-1.84,9.59,9.59,0,0,0,3.19-3.41,10.13,10.13,0,0,0,1.21-5.1,9.26,9.26,0,0,0-1.35-5.18,9.4,9.4,0,0,0-3.47-3.19,16.49,16.49,0,0,0-4.82-1.63,29.11,29.11,0,0,0-5.25-.5h-15Zm0,41.55h19.85a24.38,24.38,0,0,0,5.18-.57,13.83,13.83,0,0,0,4.75-2,11.36,11.36,0,0,0,3.47-3.69,10.64,10.64,0,0,0,1.35-5.53,8.89,8.89,0,0,0-1.77-5.75,11.43,11.43,0,0,0-4.47-3.33,23.12,23.12,0,0,0-5.81-1.56,43.9,43.9,0,0,0-5.82-.42H859.06Z"/><path class="cls-1" d="M923.58,225.45a36,36,0,0,1,3-14.89,34.18,34.18,0,0,1,8.15-11.42,35.94,35.94,0,0,1,12.2-7.3,45,45,0,0,1,29.92,0,35.94,35.94,0,0,1,12.2,7.3,34.18,34.18,0,0,1,8.15,11.42,38.69,38.69,0,0,1,0,29.78A34.14,34.14,0,0,1,989,251.75a36.12,36.12,0,0,1-12.2,7.31,45.16,45.16,0,0,1-29.92,0,36.12,36.12,0,0,1-12.2-7.31,34.14,34.14,0,0,1-8.15-11.41A36.06,36.06,0,0,1,923.58,225.45Zm21.27,0q0,7.8,4.47,12.62t12.55,4.82q8.08,0,12.55-4.82t4.47-12.62q0-7.8-4.47-12.62T961.87,208q-8.08,0-12.55,4.83T944.85,225.45Z"/><path class="cls-1" d="M1010.09,225.45a36.16,36.16,0,0,1,3-14.89,34.35,34.35,0,0,1,8.16-11.42,35.89,35.89,0,0,1,12.19-7.3,45,45,0,0,1,29.93,0,35.89,35.89,0,0,1,12.19,7.3,34.35,34.35,0,0,1,8.16,11.42,38.69,38.69,0,0,1,0,29.78,34.31,34.31,0,0,1-8.16,11.41,36.08,36.08,0,0,1-12.19,7.31,45.19,45.19,0,0,1-29.93,0,36.08,36.08,0,0,1-12.19-7.31,34.31,34.31,0,0,1-8.16-11.41A36.22,36.22,0,0,1,1010.09,225.45Zm21.27,0q0,7.8,4.47,12.62t12.55,4.82q8.07,0,12.55-4.82t4.46-12.62q0-7.8-4.46-12.62T1048.38,208q-8.09,0-12.55,4.83T1031.36,225.45Z"/></svg>