<svg width="25" height="19" viewBox="0 0 25 19" fill="none" xmlns="http://www.w3.org/2000/svg">
<path d="M20.8044 4.43726L19.6695 5.57491C19.7396 5.62987 19.8219 5.69461 19.9055 5.75868C21.1777 6.74325 22.2658 7.90316 23.1887 9.21851C23.2783 9.34597 23.276 9.43094 23.1887 9.55772C22.3835 10.7139 21.4555 11.7592 20.3681 12.6551C17.3352 15.1533 13.9131 16.179 10.0109 15.3627C9.9468 15.3492 9.84902 15.3532 9.80856 15.3923C9.40057 15.7852 9.00134 16.1871 8.58762 16.5981C8.62534 16.62 8.66455 16.6393 8.70496 16.6558C11.0652 17.3423 13.4441 17.4242 15.8158 16.7842C19.8836 15.6847 22.8484 13.1433 25 9.58065V9.18985C23.9264 7.30534 22.485 5.74991 20.8044 4.43726Z" fill="black"/>
<path d="M21.6032 1.37484C21.9482 1.01742 21.961 0.539636 21.6339 0.222009C21.3139 -0.0888734 20.8442 -0.0733632 20.5 0.269215C19.7244 1.03867 18.9509 1.80778 18.1876 2.58769C18.0483 2.72998 17.9471 2.73638 17.7698 2.66119C14.7281 1.36877 11.6128 1.18467 8.46657 2.18914C4.89242 3.32814 2.23981 5.6601 0.210975 8.76421C-0.0779909 9.20592 -0.0648406 9.58626 0.218056 10.0243C1.13115 11.4377 2.21384 12.7018 3.50289 13.7801C4.13005 14.3031 4.80611 14.7725 5.48587 15.2857C4.79228 15.9776 4.08824 16.6779 3.3869 17.3809C3.03016 17.7387 3.00757 18.2063 3.32486 18.5324C3.64822 18.8649 4.12803 18.8473 4.49421 18.4815C10.1906 12.7858 15.8874 7.08987 21.5847 1.39372L21.6032 1.37484ZM9.81766 10.9171C9.22725 10.1669 9.10013 8.56257 10.0844 7.38546C11.0686 6.20836 12.8466 5.89714 14.0338 6.70233L9.81766 10.9171ZM15.1856 5.5468C14.0625 4.78814 12.8166 4.50997 11.4665 4.805C10.492 5.0181 9.67301 5.51309 8.9983 6.24781C7.78782 7.56822 7.19201 9.93963 8.63651 12.0811L6.66601 14.0634C5.57826 13.449 4.56671 12.7055 3.6988 11.7938C3.02207 11.082 2.42188 10.2977 1.78629 9.54681C1.69593 9.44026 1.68885 9.35293 1.77652 9.22851C3.52683 6.74448 5.72695 4.81579 8.62538 3.79244C11.3228 2.84057 14.024 2.90497 16.6996 3.92259C16.7233 3.93503 16.7459 3.94959 16.767 3.96609L15.1856 5.5468Z" fill="black"/>
<path d="M15.573 9.76869C15.4885 10.4566 15.1763 11.0964 14.6861 11.5864C14.1958 12.0763 13.5558 12.3881 12.8678 12.4722C12.7845 12.4827 12.6854 12.5117 12.6281 12.5673C12.1847 12.9969 11.7497 13.4349 11.2868 13.8958C12.7795 14.3571 14.7891 13.9369 16.0923 12.3859C17.201 11.0668 17.3911 9.21942 16.9757 8.20483C16.535 8.64857 16.0967 9.08387 15.6674 9.5276C15.6118 9.58728 15.5835 9.68507 15.573 9.76869Z" fill="black"/>
</svg>
