<svg id="Layer_1" data-name="Layer 1" xmlns="http://www.w3.org/2000/svg" viewBox="0 0 1200 1200" fill="white"><path d="M581.32,946c-14.65-2.18-29.46-3.61-43.94-6.65-85.61-18-153.49-63.22-201.48-136.18C251.61,675,270.06,509.23,379.37,401.61a308.73,308.73,0,0,1,92.95-62.73c15.52-6.84,32.07-.95,38.83,13.71s1,31.3-14.66,38.41c-36,16.36-67.33,38.89-93.1,69C277.45,607,350.9,834.94,539,881.09c145.62,35.73,291.22-60,316.82-208.25,20-115.9-40.73-231-147.64-279.73-16.63-7.58-24.14-19.74-21.08-34.14,3.89-18.28,22.89-28,40.41-20.38,29.92,13,57.44,30.09,81.61,52.05,77,69.95,113,157.21,107,261C908.22,790.51,801.74,912,665.11,939.1c-15.17,3-30.62,4.62-46,6.89Z"/><path d="M571.53,397.3c0-38.05-.17-76.1.09-114.14.14-20.34,18.8-33.78,37.62-27.66,11.66,3.8,19.45,14.17,19.62,27.07.24,18.23.1,36.47.1,54.7q0,87.12,0,174.25c0,17.94-11.6,30.4-28.06,30.66-16.72.28-29.19-12-29.28-29.4-.18-33.09-.06-66.18-.06-99.28C571.52,408.1,571.53,402.7,571.53,397.3Z"/></svg>