<svg id="Layer_1" data-name="Layer 1" xmlns="http://www.w3.org/2000/svg" viewBox="0 0 1200 1200" fill="white"><path d="M242.73,586.47q0-136.55,0-273.1c0-62.09,43.08-105.22,105.23-105.24q252-.06,504,0c62.23,0,105.23,43.05,105.24,105.23q0,274.38,0,548.77c0,51.76-33.91,92.42-84.65,101.47-17.48,3.12-34.76,1.06-51.5-5.07-18-6.57-36-13-54-19.56-13-4.79-25.69-4.17-38.32,1.58-27.82,12.68-55.8,25-83.59,37.76-30.18,13.84-60.11,13.92-90.31,0-27-12.47-54.29-24.18-81.24-36.7-14.33-6.66-28.18-7.26-43.11-1.74-22.48,8.31-44.89,17.69-68.18,22.74C300.9,975.89,243,928,242.82,864.73,242.5,772,242.74,679.23,242.73,586.47Zm42.92-.45q0,142.89,0,285.77c0,37,31,59,65.83,46.91,17.68-6.12,35.39-12.21,52.86-18.91,29.69-11.4,58.65-10,87.41,3.24,27.54,12.66,55.47,24.48,82.82,37.51,17.5,8.34,33.95,8,51.33-.21,27.94-13.19,56.31-25.45,84.47-38.18,26.41-11.94,53.29-13.6,80.7-3.89,18.2,6.44,36.34,13,54.51,19.58,37.92,13.64,68.68-8,68.68-48.45q0-283.54,0-567.09c0-33.45-19.06-52.54-52.58-52.54q-261.6,0-523.21,0c-34.07,0-52.84,18.94-52.84,53.16Q285.63,444.48,285.65,586Z"/><path d="M599.86,446.05q-89.65,0-179.32.05c-8.31,0-16-1.28-22.18-7.2-7.91-7.54-10.88-16.67-8-27.29,2.79-10.2,9.45-16.87,19.77-19.35A50.82,50.82,0,0,1,422,391.12q178-.09,356.07-.08c8.84,0,17.17,1.19,23.76,7.71,8.28,8.2,11.11,18.1,7.11,29.06S797,445,785.19,445.88c-3.13.23-6.29.16-9.44.16Z"/><path d="M599.56,592.93q-89.67,0-179.33,0c-17,0-28.31-9-30.64-24-2.27-14.61,8.6-28.94,23.32-30.66a68.35,68.35,0,0,1,7.71-.29q179.32,0,358.65-.11c12.55,0,22.44,3.78,28.38,15.27,7.79,15.09-.49,34.07-16.9,38.4a54.59,54.59,0,0,1-13.59,1.34Q688.36,593,599.56,592.93Z"/><path d="M508.25,739.38q-44.21,0-88.39,0c-18,0-30.74-11.56-30.63-27.61s12.59-27.32,30.86-27.33q88.4-.06,176.77,0c18.12,0,30.63,11.38,30.56,27.58s-12.55,27.34-30.79,27.36Q552.44,739.44,508.25,739.38Z"/></svg>