<svg id="Layer_1" data-name="Layer 1" xmlns="http://www.w3.org/2000/svg" viewBox="0 0 1200 1200" fill="white"><path d="M611.3,236c5.24,1.3,10.53,2.43,15.71,3.93,41.78,12.16,70.72,49.79,70.76,93.28q.26,266.83,0,533.68c0,48-35.17,88.27-82.49,95.94a27.33,27.33,0,0,0-4,1.27H588.6c-4.57-1.08-9.16-2-13.68-3.24-42.44-11.24-72.76-49.9-72.8-94q-.22-266.83,0-533.69c.05-47.9,35.1-88.17,82.49-95.94a27.92,27.92,0,0,0,4-1.26Zm38.86,364q0-102,0-204.06c0-24.06.33-48.13-.12-72.19-.53-28.2-31.76-47.88-63.59-40.52-22.71,5.25-36.72,22.2-36.73,44.6q0,272.19,0,544.39c0,2,0,3.93.1,5.89,1.47,22.21,23.38,40,49.48,40.25,28.61.26,50.8-18.9,50.82-44.33Q650.27,737,650.16,600Z"/><path d="M854,964.05c-5.23-1.31-10.51-2.45-15.68-3.95-41.74-12.14-70.68-49.88-70.76-93.35q-.3-162.42,0-324.86c.14-53.9,44.35-97.1,98.21-97,53.43.12,97.26,43.39,97.4,97.05q.4,162.43,0,324.86c-.11,48-35.13,88.24-82.52,95.95a27.45,27.45,0,0,0-4,1.27Zm62-259.31q0-84.69,0-169.37c0-26.21-21.85-45.58-50.9-45.49-28.52.09-50.19,19.48-50.34,45.26-.13,21.57,0,43.15,0,64.73q0,136.25,0,272.48c0,10.9,2.81,20.87,10.6,29.58,13.39,15,35.69,20.84,56.26,14.82S915.9,894.63,916,875.6C916.14,818.65,916,761.69,916,704.74Z"/><path d="M236.61,739.36c1-4.06,2-8.13,3.08-12.19,11.8-46,54.42-76.19,103.33-73.09,44.12,2.8,82.19,39.1,88.25,84.29a126.41,126.41,0,0,1,1.1,16.26q.13,54,0,108c-.05,52.22-32.55,91-84,100.37a12.27,12.27,0,0,0-2.55,1.08H323.19a33.3,33.3,0,0,0-4-1.27c-40.6-7.81-66.84-31.71-79.16-71.09-1.47-4.69-2.32-9.59-3.45-14.39Zm50.16,69.31c0,19.64-.07,39.28,0,58.93.11,26.19,20.75,45.9,47.87,45.82,26.76-.08,47.46-19.68,47.55-45.42q.21-59.29,0-118.6c-.11-25.76-20.83-45-47.92-44.92s-47.36,19.39-47.49,45.26C286.69,769.39,286.77,789,286.77,808.67Z"/></svg>