<svg width="25" height="16" viewBox="0 0 25 16" fill="none" xmlns="http://www.w3.org/2000/svg">
<path d="M24.6808 7.26607C23.8708 6.22755 22.9731 5.26039 21.9978 4.37521C20.302 2.83349 18.4465 1.53748 16.2861 0.719422C14.8541 0.177072 13.3728 -0.0814436 11.8414 0.0226501C9.96424 0.149563 8.23903 0.774751 6.62292 1.70409C4.16031 3.12139 2.11188 5.0154 0.349167 7.22762C0.20975 7.40236 0.115347 7.61274 0 7.80655V8.09882C0.105344 8.27981 0.19162 8.47581 0.319158 8.6393C1.12938 9.6777 2.02687 10.6449 3.00184 11.5305C4.69703 13.0722 6.5529 14.3676 8.71324 15.1853C10.1449 15.728 11.6263 15.9862 13.158 15.8821C15.0336 15.7549 16.7591 15.1294 18.3764 14.2003C20.8191 12.7971 22.8497 10.9181 24.6064 8.73526C24.7627 8.54208 24.87 8.31139 25 8.0982V7.80811C24.8947 7.62556 24.8084 7.42956 24.6808 7.26607ZM21.1204 10.0794C19.9013 11.2482 18.5634 12.2644 17.0545 13.0387C15.5006 13.838 13.867 14.3323 12.0933 14.2475C10.933 14.191 9.83326 13.8884 8.77544 13.4301C6.66168 12.5139 4.88709 11.1169 3.2813 9.49455C2.79709 9.00503 2.34352 8.48675 1.84805 7.95378C2.35664 7.40455 2.8271 6.86783 3.3285 6.36143C4.69578 4.97976 6.19811 3.76971 7.93457 2.87351C9.48878 2.0717 11.1202 1.57718 12.8942 1.66033C14.0552 1.71472 15.1558 2.01543 16.2133 2.47307C18.3349 3.39179 20.1167 4.79127 21.7271 6.42238C22.2057 6.90721 22.6562 7.41987 23.1651 7.96941C22.4649 8.69525 21.8169 9.41297 21.1204 10.0807V10.0794Z" fill="#FF6900"/>
<path d="M12.5309 3.02224C9.81138 2.9938 7.57883 5.19946 7.5607 7.93434C7.5432 10.6458 9.73386 12.8539 12.4684 12.883C15.188 12.9118 17.4208 10.7052 17.4387 7.97092C17.4568 5.26073 15.2649 3.051 12.5309 3.02224ZM12.5016 11.2435C10.6901 11.2435 9.21589 9.7774 9.20557 7.96123C9.19494 6.15037 10.6991 4.65023 12.5109 4.66461C14.3337 4.67899 15.7982 6.14912 15.7932 7.95873C15.7903 8.83037 15.442 9.66534 14.8247 10.2807C14.2074 10.8961 13.3713 11.2417 12.4997 11.2419L12.5016 11.2435Z" fill="#FF6900"/>
</svg>
